<svg id="_001-company" data-name="001-company" xmlns="http://www.w3.org/2000/svg" width="16" height="16" viewBox="0 0 16 16">
  <path id="Path_227" data-name="Path 227" d="M16.484,16.484V4.871a.258.258,0,0,0-.258-.258h-.258V3.839a.258.258,0,0,0-.258-.258h-.774V3a1.038,1.038,0,0,0,.516-.971c0-.579-.34-1.032-.774-1.032s-.774.453-.774,1.032A1.038,1.038,0,0,0,14.419,3v.577H12.355V3a1.038,1.038,0,0,0,.516-.971c0-.579-.34-1.032-.774-1.032s-.774.453-.774,1.032A1.038,1.038,0,0,0,11.839,3v.577h-.774a.258.258,0,0,0-.258.258v.774h-.258a.258.258,0,0,0-.258.258v6.452H7.71V8.742a.258.258,0,0,0-.258-.258H7.194V7.71a.258.258,0,0,0-.258-.258H2.29a.258.258,0,0,0-.258.258v.774H1.774a.258.258,0,0,0-.258.258v7.742H1V17H17v-.516ZM14.677,1.516c.105,0,.258.2.258.516s-.153.516-.258.516-.258-.2-.258-.516S14.572,1.516,14.677,1.516Zm-2.581,0c.105,0,.258.2.258.516s-.153.516-.258.516-.258-.2-.258-.516S11.991,1.516,12.1,1.516ZM11.323,4.1h4.129v.516H11.323Zm4.645,1.032V16.484H14.935v-1.29a.258.258,0,0,0-.258-.258H12.1a.258.258,0,0,0-.258.258v1.29H10.806V5.129ZM14.419,16.484H12.355V15.452h2.065ZM10.29,11.839v4.645H7.71V11.839ZM2.548,7.968H6.677v.516H2.548ZM2.032,9H7.194v7.484H2.032Z" transform="translate(-1 -1)" fill="#8d8d8d"/>
  <path id="Path_228" data-name="Path 228" d="M29,45h.455v.455H29Z" transform="translate(-21.746 -33.6)" fill="#8d8d8d"/>
  <path id="Path_229" data-name="Path 229" d="M33,45h.455v.455H33Z" transform="translate(-24.709 -33.6)" fill="#8d8d8d"/>
  <path id="Path_230" data-name="Path 230" d="M29,49h.455v.455H29Z" transform="translate(-21.746 -36.564)" fill="#8d8d8d"/>
  <path id="Path_231" data-name="Path 231" d="M33,49h.455v.455H33Z" transform="translate(-24.709 -36.564)" fill="#8d8d8d"/>
  <path id="Path_232" data-name="Path 232" d="M29,53h.455v.455H29Z" transform="translate(-21.746 -39.275)" fill="#8d8d8d"/>
  <path id="Path_233" data-name="Path 233" d="M33,53h.455v.455H33Z" transform="translate(-24.709 -39.275)" fill="#8d8d8d"/>
  <path id="Path_234" data-name="Path 234" d="M29,57h.455v.455H29Z" transform="translate(-21.746 -42.365)" fill="#8d8d8d"/>
  <path id="Path_235" data-name="Path 235" d="M33,57h.455v.455H33Z" transform="translate(-24.709 -42.365)" fill="#8d8d8d"/>
  <path id="Path_236" data-name="Path 236" d="M41.227,24.365h.91a.227.227,0,0,0,.227-.227v-.91A.227.227,0,0,0,42.137,23h-.91a.227.227,0,0,0-.227.227v.91A.227.227,0,0,0,41.227,24.365Zm.227-.91h.455v.455h-.455Z" transform="translate(-30.546 -17.25)" fill="#8d8d8d"/>
  <path id="Path_237" data-name="Path 237" d="M52.137,23h-.91a.227.227,0,0,0-.227.227v.91a.227.227,0,0,0,.227.227h.91a.227.227,0,0,0,.227-.227v-.91A.227.227,0,0,0,52.137,23Zm-.227.91h-.455v-.455h.455Z" transform="translate(-37.73 -17.25)" fill="#8d8d8d"/>
  <path id="Path_238" data-name="Path 238" d="M41.227,32.365h.91a.227.227,0,0,0,.227-.227v-.91A.227.227,0,0,0,42.137,31h-.91a.227.227,0,0,0-.227.227v.91A.227.227,0,0,0,41.227,32.365Zm.227-.91h.455v.455h-.455Z" transform="translate(-30.546 -23.16)" fill="#8d8d8d"/>
  <path id="Path_239" data-name="Path 239" d="M52.137,31h-.91a.227.227,0,0,0-.227.227v.91a.227.227,0,0,0,.227.227h.91a.227.227,0,0,0,.227-.227v-.91A.227.227,0,0,0,52.137,31Zm-.227.91h-.455v-.455h.455Z" transform="translate(-37.73 -23.16)" fill="#8d8d8d"/>
  <path id="Path_240" data-name="Path 240" d="M41.227,40.365h.91a.227.227,0,0,0,.227-.227v-.91A.227.227,0,0,0,42.137,39h-.91a.227.227,0,0,0-.227.227v.91A.227.227,0,0,0,41.227,40.365Zm.227-.91h.455v.455h-.455Z" transform="translate(-30.546 -29.069)" fill="#8d8d8d"/>
  <path id="Path_241" data-name="Path 241" d="M52.137,39h-.91a.227.227,0,0,0-.227.227v.91a.227.227,0,0,0,.227.227h.91a.227.227,0,0,0,.227-.227v-.91A.227.227,0,0,0,52.137,39Zm-.227.91h-.455v-.455h.455Z" transform="translate(-37.73 -29.069)" fill="#8d8d8d"/>
  <path id="Path_242" data-name="Path 242" d="M41.227,48.365h.91a.227.227,0,0,0,.227-.227v-.91A.227.227,0,0,0,42.137,47h-.91a.227.227,0,0,0-.227.227v.91A.227.227,0,0,0,41.227,48.365Zm.227-.91h.455v.455h-.455Z" transform="translate(-30.546 -34.978)" fill="#8d8d8d"/>
  <path id="Path_243" data-name="Path 243" d="M52.137,47h-.91a.227.227,0,0,0-.227.227v.91a.227.227,0,0,0,.227.227h.91a.227.227,0,0,0,.227-.227v-.91A.227.227,0,0,0,52.137,47Zm-.227.91h-.455v-.455h.455Z" transform="translate(-37.73 -34.978)" fill="#8d8d8d"/>
  <path id="Path_244" data-name="Path 244" d="M8.137,34h-.91A.227.227,0,0,0,7,34.227v.91a.227.227,0,0,0,.227.227h.91a.227.227,0,0,0,.227-.227v-.91A.227.227,0,0,0,8.137,34Zm-.227.91H7.455v-.455H7.91Z" transform="translate(-5.635 -25.376)" fill="#8d8d8d"/>
  <path id="Path_245" data-name="Path 245" d="M18.137,34h-.91a.227.227,0,0,0-.227.227v.91a.227.227,0,0,0,.227.227h.91a.227.227,0,0,0,.227-.227v-.91A.227.227,0,0,0,18.137,34Zm-.227.91h-.455v-.455h.455Z" transform="translate(-12.819 -25.376)" fill="#8d8d8d"/>
  <path id="Path_246" data-name="Path 246" d="M8.137,42h-.91A.227.227,0,0,0,7,42.227v.91a.227.227,0,0,0,.227.227h.91a.227.227,0,0,0,.227-.227v-.91A.227.227,0,0,0,8.137,42Zm-.227.91H7.455v-.455H7.91Z" transform="translate(-5.635 -31.285)" fill="#8d8d8d"/>
  <path id="Path_247" data-name="Path 247" d="M18.137,42h-.91a.227.227,0,0,0-.227.227v.91a.227.227,0,0,0,.227.227h.91a.227.227,0,0,0,.227-.227v-.91A.227.227,0,0,0,18.137,42Zm-.227.91h-.455v-.455h.455Z" transform="translate(-12.819 -31.285)" fill="#8d8d8d"/>
  <path id="Path_248" data-name="Path 248" d="M8.137,50h-.91A.227.227,0,0,0,7,50.227v.91a.227.227,0,0,0,.227.227h.91a.227.227,0,0,0,.227-.227v-.91A.227.227,0,0,0,8.137,50Zm-.227.91H7.455v-.455H7.91Z" transform="translate(-5.635 -36.957)" fill="#8d8d8d"/>
  <path id="Path_249" data-name="Path 249" d="M18.137,50h-.91a.227.227,0,0,0-.227.227v.91a.227.227,0,0,0,.227.227h.91a.227.227,0,0,0,.227-.227v-.91A.227.227,0,0,0,18.137,50Zm-.227.91h-.455v-.455h.455Z" transform="translate(-12.819 -36.957)" fill="#8d8d8d"/>
  <path id="Path_250" data-name="Path 250" d="M41,19h3.64v.455H41Z" transform="translate(-30.004 -14.336)" fill="#8d8d8d"/>
</svg>
