<svg id="_002-ceo" data-name="002-ceo" xmlns="http://www.w3.org/2000/svg" width="14" height="16.154" viewBox="0 0 14 16.154">
  <path id="Path_251" data-name="Path 251" d="M13.731,11.107H.538v-.555H13.731a.278.278,0,0,0,0-.555H11.846V9.163a.274.274,0,0,0-.269-.278H8.346a.274.274,0,0,0-.269.278V10H5.385V7.22a.269.269,0,1,0-.538,0V10H4.308V6.664A1.368,1.368,0,0,1,5.654,5.276H8.346A1.368,1.368,0,0,1,9.692,6.664V8.053a.269.269,0,1,0,.538,0V6.664A1.915,1.915,0,0,0,8.346,4.721h-.03a1.974,1.974,0,0,0,.568-1.388V3.238A1.673,1.673,0,0,0,9.941,1.384,1.63,1.63,0,0,0,8.346,0H4.577a.547.547,0,0,0-.538.555V1.666A1.664,1.664,0,0,0,5.115,3.238v.094a1.974,1.974,0,0,0,.568,1.388h-.03A1.915,1.915,0,0,0,3.769,6.664V10H3.231V8.608a.274.274,0,0,0-.269-.278H2.154V8.053a.274.274,0,0,0-.269-.278H.808a.274.274,0,0,0-.269.278V9.163a.274.274,0,0,0,.269.278.274.274,0,0,0,.269-.278V8.33h.538V10H.269A.274.274,0,0,0,0,10.274v1.111a.274.274,0,0,0,.269.278H13.731a.278.278,0,0,0,0-.555ZM4.577,1.666V.555H8.346a1.083,1.083,0,0,1,1.038.823,1.125,1.125,0,0,1-.5,1.248V1.666a.274.274,0,0,0-.269-.278H5.385a.274.274,0,0,0-.269.278v.961a1.117,1.117,0,0,1-.538-.961ZM5.654,3.332V1.944H8.346V3.332a1.347,1.347,0,1,1-2.692,0ZM8.615,9.441h2.692V10H8.615ZM2.154,8.886h.538V10H2.154Zm0,0" transform="translate(0 0)" fill="#8d8d8d"/>
  <path id="Path_252" data-name="Path 252" d="M96.749,360.5h.5a.25.25,0,0,1,.25.25.25.25,0,0,0,.5,0,.749.749,0,0,0-.749-.749h-.5a.749.749,0,0,0-.749.749v1a.749.749,0,0,0,.749.749h.5a.749.749,0,0,0,.749-.749.25.25,0,0,0-.5,0,.25.25,0,0,1-.25.25h-.5a.25.25,0,0,1-.25-.25v-1A.25.25,0,0,1,96.749,360.5Zm0,0" transform="translate(-92.726 -347.589)" fill="#8d8d8d"/>
  <path id="Path_253" data-name="Path 253" d="M176.749,360.5h1a.25.25,0,0,0,0-.5h-1a.749.749,0,0,0-.749.749v1a.749.749,0,0,0,.749.749h1a.25.25,0,0,0,0-.5h-1a.25.25,0,0,1-.25-.25v-.25h1.248a.25.25,0,0,0,0-.5H176.5v-.25A.25.25,0,0,1,176.749,360.5Zm0,0" transform="translate(-169.998 -347.589)" fill="#8d8d8d"/>
  <path id="Path_254" data-name="Path 254" d="M257.248,360h-.5a.749.749,0,0,0-.749.749v1a.749.749,0,0,0,.749.749h.5a.749.749,0,0,0,.749-.749v-1A.749.749,0,0,0,257.248,360Zm.25,1.747a.25.25,0,0,1-.25.25h-.5a.25.25,0,0,1-.25-.25v-1a.25.25,0,0,1,.25-.25h.5a.25.25,0,0,1,.25.25Zm0,0" transform="translate(-247.27 -347.589)" fill="#8d8d8d"/>
  <path id="Path_255" data-name="Path 255" d="M352.25,352a.249.249,0,0,0-.25.25v3.493a.25.25,0,0,0,.5,0V352.25A.249.249,0,0,0,352.25,352Zm0,0" transform="translate(-339.996 -339.838)" fill="#8d8d8d"/>
  <path id="Path_256" data-name="Path 256" d="M48.25,352a.25.25,0,0,0-.25.25v3.493a.25.25,0,0,0,.5,0V352.25A.25.25,0,0,0,48.25,352Zm0,0" transform="translate(-46.503 -339.838)" fill="#8d8d8d"/>
  <path id="Path_257" data-name="Path 257" d="M178,168.25a.25.25,0,0,0-.5,0,.25.25,0,0,1-.25.25h-.5a.25.25,0,0,1-.25-.25.25.25,0,0,0-.5,0,.748.748,0,0,0,.464.691l-.215,1.265a.249.249,0,0,0,.04.177l.5.749a.249.249,0,0,0,.414,0l.5-.749a.25.25,0,0,0,.04-.177l-.212-1.265A.749.749,0,0,0,178,168.25Zm-1,2.3-.237-.357.2-1.19h.075l.2,1.19Zm0,0" transform="translate(-169.998 -162.232)" fill="#8d8d8d"/>
  <path id="Path_258" data-name="Path 258" d="M256,200.25V201a.25.25,0,0,0,.5,0v-.749a.25.25,0,0,0-.5,0Zm0,0" transform="translate(-247.359 -193.224)" fill="#8d8d8d"/>
</svg>
