<svg id="_15-globe" data-name="15-globe" xmlns="http://www.w3.org/2000/svg" width="16" height="16" viewBox="0 0 16 16">
  <g id="linear_color" data-name="linear color" transform="translate(0 0)">
    <path id="Path_260" data-name="Path 260" d="M19.548,14.512a8.023,8.023,0,0,0-.491-6.193,2.941,2.941,0,0,0,.513-1.527,2.664,2.664,0,0,0-4.325-2.086,8.012,8.012,0,0,0-7.394.422A2.665,2.665,0,0,0,4.08,7.554,2.857,2.857,0,0,0,4.538,8.99,7.946,7.946,0,0,0,3.953,12a8,8,0,0,0,15.6,2.514ZM19.189,12a7.259,7.259,0,0,1-.2,1.678l-.424-.424a.381.381,0,0,0-.207-.106l-1.373-.229-.28-.373a2.663,2.663,0,0,0-.352-.657l-.189-1.7.16-.08c.2.174.329.277.341.286a.381.381,0,0,0,.468,0A10.26,10.26,0,0,0,18.33,9.269q.114-.127.219-.252A7.257,7.257,0,0,1,19.189,12Zm-.918,3.531-.117-.351a.381.381,0,0,0-.287-.253l-1.325-.265a2.853,2.853,0,0,0,.318-.993l1.257.21.626.626a7.2,7.2,0,0,1-.473,1.026Zm-2.793-6.26c.089.1.177.193.264.281l-.151.076a.381.381,0,0,0-.208.383l.125,1.124a2.663,2.663,0,0,0-3.664,1.089l-.512-.079-1.322-.882-.161-.8.817-.327.863.431a.381.381,0,0,0,.463-.1L13.209,9l1.5-.75a6.69,6.69,0,0,0,.768,1.017ZM14.2,11.553a1.907,1.907,0,0,1,1.9,1.9c0,.971-1.215,2.216-1.9,2.808-.69-.592-1.9-1.837-1.9-2.808a1.907,1.907,0,0,1,1.9-1.9Zm2.7-6.665a1.907,1.907,0,0,1,1.9,1.9c0,.971-1.215,2.216-1.9,2.808-.784-.687-1.886-1.833-1.9-2.808a1.907,1.907,0,0,1,1.9-1.9Zm-4.952-.127A7.172,7.172,0,0,1,14.7,5.3a2.651,2.651,0,0,0-.458,1.493,2.327,2.327,0,0,0,.142.773L12.8,8.356a.38.38,0,0,0-.122.1L11.6,9.745l-.746-.373a.381.381,0,0,0-.312-.013l-1.27.508a.381.381,0,0,0-.232.429l.254,1.27a.381.381,0,0,0,.162.242l1.524,1.016a.381.381,0,0,0,.153.059l.455.07a2.67,2.67,0,0,0-.049.5,2.141,2.141,0,0,0,.056.475L9.106,12.688l-.88-.66L7.819,10.4c.114-.114.233-.239.353-.371A3.964,3.964,0,0,0,9.412,7.554,2.659,2.659,0,0,0,8.561,5.6,7.219,7.219,0,0,1,11.952,4.761Zm-5.206.889a1.907,1.907,0,0,1,1.9,1.9,4.3,4.3,0,0,1-1.5,2.437.383.383,0,0,0-.041.04c-.13.125-.255.237-.365.332-.69-.592-1.9-1.837-1.9-2.808A1.907,1.907,0,0,1,6.746,5.649ZM4.818,13.222l.249.274a.381.381,0,0,0,.189.113l.912.228a3.926,3.926,0,0,1,.579.713c.031.391.513.544,1.049.678.263.066.523.116.67.143l.467.467-.609,1.015a.381.381,0,0,0-.049.135l-.184,1.13a7.253,7.253,0,0,1-3.272-4.895Zm3.98,5.29.216-1.33.724-1.207a.381.381,0,0,0-.057-.465l-.762-.762a.381.381,0,0,0-.207-.106,6.448,6.448,0,0,1-1.236-.311,3.307,3.307,0,0,0-.843-1.107.381.381,0,0,0-.177-.1l-.9-.226-.839-.921a7.2,7.2,0,0,1,.358-2.233q.117.142.247.287a10.26,10.26,0,0,0,1.192,1.125c.271.171.412.059.669-.165l.338,1.353a.381.381,0,0,0,.141.212l1.016.762a.38.38,0,0,0,.058.036l2.279,1.14-.2.984a.381.381,0,0,0-.007.075v1.27a.381.381,0,0,0,.211.341l1.313.657v1.288a.381.381,0,0,0,.015.1l0,.011c-.132.007-.266.011-.4.011A7.194,7.194,0,0,1,8.8,18.512Zm4.321.629-.025-.086v-1.47a.381.381,0,0,0-.211-.341l-1.313-.657v-1l.218-1.092a5.814,5.814,0,0,0,.99,1.436,10.267,10.267,0,0,0,1.192,1.125.381.381,0,0,0,.468,0,10.268,10.268,0,0,0,1.192-1.125q.268-.3.478-.583l1.392.278.238.715a7.249,7.249,0,0,1-4.62,2.8Z" transform="translate(-3.951 -3.999)" fill="#8d8d8d"/>
    <path id="Path_261" data-name="Path 261" d="M54.153,77.077a1.077,1.077,0,1,0-1.077,1.077A1.077,1.077,0,0,0,54.153,77.077Zm-1.507,0a.431.431,0,1,1,.431.431A.431.431,0,0,1,52.646,77.077Z" transform="translate(-50.707 -74.062)" fill="#8d8d8d"/>
    <path id="Path_262" data-name="Path 262" d="M373.077,54.153A1.077,1.077,0,1,0,372,53.077,1.077,1.077,0,0,0,373.077,54.153Zm0-1.507a.431.431,0,1,1-.431.431A.431.431,0,0,1,373.077,52.646Z" transform="translate(-359.661 -50.708)" fill="#8d8d8d"/>
    <path id="Path_263" data-name="Path 263" d="M289.131,263.055a1.077,1.077,0,1,0-1.077,1.077A1.077,1.077,0,0,0,289.131,263.055Zm-1.507,0a.431.431,0,1,1,.431.431A.431.431,0,0,1,287.624,263.055Z" transform="translate(-277.736 -253.554)" fill="#8d8d8d"/>
  </g>
</svg>
