<svg id="database" xmlns="http://www.w3.org/2000/svg" width="89.961" height="107.366" viewBox="0 0 89.961 107.366">
  <g id="Group_48" data-name="Group 48" transform="translate(8.906 34.024)">
    <g id="Group_47" data-name="Group 47">
      <circle id="Ellipse_2" data-name="Ellipse 2" cx="1.573" cy="1.573" r="1.573" fill="#20bcba"/>
    </g>
  </g>
  <g id="Group_50" data-name="Group 50" transform="translate(8.921 29.515)">
    <g id="Group_49" data-name="Group 49">
      <circle id="Ellipse_3" data-name="Ellipse 3" cx="1.573" cy="1.573" r="1.573" fill="#20bcba"/>
    </g>
  </g>
  <g id="Group_52" data-name="Group 52" transform="translate(8.906 59.043)">
    <g id="Group_51" data-name="Group 51">
      <circle id="Ellipse_4" data-name="Ellipse 4" cx="1.573" cy="1.573" r="1.573" fill="#20bcba"/>
    </g>
  </g>
  <g id="Group_54" data-name="Group 54" transform="translate(8.921 54.535)">
    <g id="Group_53" data-name="Group 53">
      <circle id="Ellipse_5" data-name="Ellipse 5" cx="1.573" cy="1.573" r="1.573" fill="#20bcba"/>
    </g>
  </g>
  <g id="Group_56" data-name="Group 56" transform="translate(8.906 84.063)">
    <g id="Group_55" data-name="Group 55">
      <circle id="Ellipse_6" data-name="Ellipse 6" cx="1.573" cy="1.573" r="1.573" fill="#20bcba"/>
    </g>
  </g>
  <g id="Group_58" data-name="Group 58" transform="translate(8.921 79.554)">
    <g id="Group_57" data-name="Group 57">
      <circle id="Ellipse_7" data-name="Ellipse 7" cx="1.573" cy="1.573" r="1.573" fill="#20bcba"/>
    </g>
  </g>
  <g id="Group_60" data-name="Group 60" transform="translate(0)">
    <g id="Group_59" data-name="Group 59">
      <path id="Path_216" data-name="Path 216" d="M130.084,82.223,113.83,65.972a24.626,24.626,0,0,0-13.821-37.486V20.76c0-2.6-3.053-4.555-9.332-5.982a91.571,91.571,0,0,0-18.349-1.871V11.314a5.767,5.767,0,1,0-3.146,0v1.594a91.57,91.57,0,0,0-18.349,1.871c-6.28,1.427-9.332,3.384-9.332,5.982V36.278c0,1.953,1.725,3.544,5.249,4.819C43.227,42.37,41.5,43.966,41.5,45.924v7.759a1.573,1.573,0,1,0,3.146,0V49.835a25.955,25.955,0,0,0,6.045,2.039,90.534,90.534,0,0,0,18.122,1.9,24.4,24.4,0,0,0,4.26,12.366q-1.152.022-2.319.024A97.5,97.5,0,0,1,53.32,64.728l-.031-.006-.01,0c-7.849-1.494-8.629-3.278-8.632-3.278V60.367a1.573,1.573,0,0,0-3.146,0v1.075c0,1.957,1.724,3.552,5.239,4.823-3.515,1.271-5.239,2.866-5.239,4.823V86.606c0,2.6,3.053,4.555,9.332,5.982a91.586,91.586,0,0,0,18.349,1.871v1.594a5.767,5.767,0,1,0,3.146,0V94.459a91.586,91.586,0,0,0,18.349-1.871c6.279-1.427,9.332-3.384,9.332-5.982V85.544a1.573,1.573,0,1,0-3.146,0l0,1.043c0,.015-.682,1.6-7.4,3.047a93.05,93.05,0,0,1-18.713,1.69,93.034,93.034,0,0,1-18.713-1.69c-6.708-1.445-7.392-3.028-7.4-3.028V75a26.232,26.232,0,0,0,6.187,2.072,94.252,94.252,0,0,0,19.922,1.882,90.835,90.835,0,0,0,21.082-2.163c.517.032,1.036.05,1.558.05a25.029,25.029,0,0,0,3.468-.242v2.224a1.573,1.573,0,1,0,3.146,0V75.946a24.345,24.345,0,0,0,7.151-3.3L123.412,88.9a4.718,4.718,0,0,0,6.671-6.673ZM73.376,101.6a2.621,2.621,0,1,1-2.621-2.621A2.624,2.624,0,0,1,73.376,101.6ZM68.133,5.767a2.621,2.621,0,1,1,2.621,2.621A2.624,2.624,0,0,1,68.133,5.767Zm.68,44.858a89.267,89.267,0,0,1-16.91-1.7c-6.2-1.354-7.155-2.816-7.251-3,.1-.192,1.182-1.821,8.336-3.221A99.581,99.581,0,0,0,70.11,44.138,24.569,24.569,0,0,0,68.813,50.625ZM70.755,41a93.034,93.034,0,0,1-18.713-1.69c-6.708-1.445-7.392-3.028-7.4-3.028V24.669a20.679,20.679,0,0,0,3.588,1.4,69.053,69.053,0,0,0,14.551,2.3A1.573,1.573,0,0,0,63,25.225a68.063,68.063,0,0,1-13.426-2.047c-3.7-1.05-4.8-2.094-4.918-2.414.085-.167,1.03-1.661,7.39-3.032a90.336,90.336,0,0,1,17.14-1.679V20.76a1.573,1.573,0,1,0,3.146,0V16.053a90.336,90.336,0,0,1,17.14,1.679c6.317,1.361,7.292,2.844,7.388,3.028-.1.184-1.072,1.667-7.388,3.028a93.049,93.049,0,0,1-18.713,1.69q-.781,0-1.552-.01a1.573,1.573,0,1,0-.041,3.145q.791.01,1.593.01a94.241,94.241,0,0,0,19.922-1.882,26.253,26.253,0,0,0,6.186-2.072v3.161a24.667,24.667,0,0,0-25.411,13.16C71.219,40.993,70.989,41,70.755,41Zm0,34.81a93.034,93.034,0,0,1-18.713-1.69c-6.317-1.362-7.292-2.844-7.388-3.028.1-.192,1.183-1.822,8.342-3.222a101.4,101.4,0,0,0,17.76,1.44c1.628,0,3.244-.034,4.818-.1q.2.209.4.415a24.586,24.586,0,0,0,8.094,5.395A107.37,107.37,0,0,1,70.754,75.807ZM98.2,73.156a1.574,1.574,0,0,0-.225.049,21.675,21.675,0,0,1-4.581.488q-.784,0-1.559-.056c-.031,0-.062-.006-.093-.007A21.508,21.508,0,0,1,73.831,43.3a1.593,1.593,0,0,0,.081-.176A21.49,21.49,0,1,1,98.2,73.156ZM127.86,86.67a1.577,1.577,0,0,1-2.225,0L109.666,70.7q.587-.518,1.147-1.075t1.075-1.147l15.971,15.968A1.577,1.577,0,0,1,127.86,86.67Z" transform="translate(-41.5 0)" fill="#20bcba"/>
    </g>
  </g>
  <g id="Group_62" data-name="Group 62" transform="translate(33.554 33.867)">
    <g id="Group_61" data-name="Group 61">
      <path id="Path_217" data-name="Path 217" d="M232.818,166.872a18.34,18.34,0,1,0,5.372,12.969A18.222,18.222,0,0,0,232.818,166.872Zm-2.225,23.713a15.194,15.194,0,1,1,4.451-10.744A15.1,15.1,0,0,1,230.593,190.585Z" transform="translate(-201.507 -161.5)" fill="#20bcba"/>
    </g>
  </g>
</svg>
