<svg id="phone-call" xmlns="http://www.w3.org/2000/svg" width="16" height="16" viewBox="0 0 16 16">
  <path id="Path_264" data-name="Path 264" d="M13.656,2.343A8,8,0,0,0,2.343,13.657,7.948,7.948,0,0,0,8,16l.195,0a.469.469,0,0,0-.023-.937l-.172,0A7.063,7.063,0,1,1,13.84,11.97a.938.938,0,0,1-1.367.2l-.371-.3q.067-.053.131-.11A1.158,1.158,0,0,0,12.1,9.925L10.616,8.95a1.154,1.154,0,0,0-1.355.06.536.536,0,0,1-.722-.041L7.031,7.461a.536.536,0,0,1-.041-.722,1.154,1.154,0,0,0,.06-1.355L6.074,3.9a1.158,1.158,0,0,0-1.833-.133,3.443,3.443,0,0,0,.141,4.715l3.136,3.136a3.444,3.444,0,0,0,3.72.757l.644.524a1.875,1.875,0,0,0,2.734-.4,8,8,0,0,0-.959-10.154ZM8.181,10.955,5.045,7.819a2.5,2.5,0,0,1-.1-3.43.243.243,0,0,1,.17-.074.256.256,0,0,1,.179.1L6.266,5.9a.213.213,0,0,1-.01.256,1.48,1.48,0,0,0,.112,1.969L7.876,9.631a1.48,1.48,0,0,0,1.969.112.213.213,0,0,1,.256-.01l1.485.976a.252.252,0,0,1,.025.349,2.02,2.02,0,0,1-.516.353l-.008,0a2.506,2.506,0,0,1-2.906-.46Zm0,0" transform="translate(0.001 0)" fill="#8d8d8d"/>
  <path id="Path_265" data-name="Path 265" d="M249.675,61.046a4.755,4.755,0,0,1,4.347,3.416.43.43,0,0,0,.825-.241,5.615,5.615,0,0,0-5.132-4.033.43.43,0,1,0-.039.858Zm0,0" transform="translate(-240.791 -58.463)" fill="#8d8d8d"/>
  <path id="Path_266" data-name="Path 266" d="M246.937,120.987a3.036,3.036,0,0,1,2.776,2.181.43.43,0,0,0,.825-.241,3.9,3.9,0,0,0-3.561-2.8.43.43,0,0,0-.039.858Zm0,0" transform="translate(-238.58 -116.281)" fill="#8d8d8d"/>
</svg>
