<svg xmlns="http://www.w3.org/2000/svg" width="23.979" height="24.074" viewBox="0 0 23.979 24.074">
  <path id="Search_white" data-name="Search white" d="M24.692,23.372l-3.948-3.86-.093-.141a.93.93,0,0,0-1.306,0,9.318,9.318,0,0,1-12.082.391A8.82,8.82,0,0,1,5.3,8.1,9.276,9.276,0,0,1,16.878,4.69a8.892,8.892,0,0,1,4.955,10.78.9.9,0,0,0,.209.886.944.944,0,0,0,.889.266.922.922,0,0,0,.681-.62A10.721,10.721,0,0,0,17.87,3.081,11.2,11.2,0,0,0,3.94,6.693,10.632,10.632,0,0,0,5.5,20.7a11.244,11.244,0,0,0,14.4.592l3.5,3.418a.94.94,0,0,0,1.306,0,.9.9,0,0,0,0-1.287Z" transform="translate(-1.494 -1.481)" fill="#fff" stroke="#fff" stroke-width="1"/>
</svg>
