<svg xmlns="http://www.w3.org/2000/svg" width="37.171" height="37.33" viewBox="0 0 37.171 37.33">
  <path id="Search" d="M36.732,34.712,30.689,28.8l-.142-.215a1.423,1.423,0,0,0-2,0,14.263,14.263,0,0,1-18.493.6,13.5,13.5,0,0,1-3-17.851A14.2,14.2,0,0,1,24.772,6.118a13.61,13.61,0,0,1,7.585,16.5,1.37,1.37,0,0,0,.319,1.357,1.444,1.444,0,0,0,1.361.408,1.411,1.411,0,0,0,1.042-.949A16.41,16.41,0,0,0,26.29,3.654,17.148,17.148,0,0,0,4.969,9.182,16.273,16.273,0,0,0,7.36,30.621a17.21,17.21,0,0,0,22.038.906l5.351,5.231a1.439,1.439,0,0,0,2,0,1.378,1.378,0,0,0,0-1.969Z" transform="translate(-0.99 -0.97)" fill="#c3c3c3" stroke="#c3c3c3" stroke-width="2"/>
</svg>
