<svg id="Iconly_Broken_Calendar" data-name="Iconly/Broken/Calendar" xmlns="http://www.w3.org/2000/svg" width="25" height="25" viewBox="0 0 25 25">
  <g id="Calendar" transform="translate(3.136 2.091)">
    <path id="Calendar-2" data-name="Calendar" d="M5.881,20.908C1.981,20.908,0,19.142,0,15.666V7.02A4.749,4.749,0,0,1,2.164,2.581a.716.716,0,0,1,.765-.028.745.745,0,0,1-.074,1.323c-.963.573-1.418,1.572-1.418,3.144V7.3H14.7a.731.731,0,0,1,0,1.461H1.437v6.908c0,2.653,1.291,3.754,4.445,3.773h7.055c3.109,0,4.436-1.128,4.436-3.782V7.01c0-2.312-1.01-3.431-3.309-3.7v.7a.726.726,0,0,1-1.445-.056V.7A.731.731,0,0,1,12.85.192.707.707,0,0,1,13.372,0a.744.744,0,0,1,.691.768V1.851c3.145.3,4.754,2.044,4.754,5.169v8.646c0,3.477-1.981,5.243-5.881,5.243Zm7-5.141a.917.917,0,0,1,.909-.925h-.009a.9.9,0,0,1,.649.267.934.934,0,0,1,.269.658.909.909,0,1,1-1.818,0Zm-4.364,0a.909.909,0,1,1,.909.925A.917.917,0,0,1,8.518,15.767Zm-4.354,0a.917.917,0,0,1,.909-.925H5.064a.9.9,0,0,1,.648.267.93.93,0,0,1,.269.658.909.909,0,1,1-1.818,0Zm8.718-3.746a.916.916,0,0,1,.909-.924h-.009a.9.9,0,0,1,.649.267.934.934,0,0,1,.269.657.909.909,0,1,1-1.818,0Zm-4.364,0a.909.909,0,1,1,.909.925A.917.917,0,0,1,8.518,12.022Zm-4.354,0a.917.917,0,0,1,.909-.924H5.064a.9.9,0,0,1,.648.267.93.93,0,0,1,.269.657.909.909,0,1,1-1.818,0ZM5.454,4.7a.726.726,0,0,1-.7-.74V.769A.726.726,0,0,1,6.2.769V1.776h4.11a.731.731,0,0,1,0,1.461H6.181v.73a.739.739,0,0,1-.214.52.714.714,0,0,1-.507.211Z" transform="translate(0 0)" fill="#23354b"/>
  </g>
</svg>
