<svg id="Iconly_Broken_Location" data-name="Iconly/Broken/Location" xmlns="http://www.w3.org/2000/svg" width="30" height="29" viewBox="0 0 30 29">
  <g id="Location" transform="translate(4.266 2.438)">
    <path id="Combined_Shape" data-name="Combined Shape" d="M9.576,24.232a29.222,29.222,0,0,1-6.943-6.455A12.927,12.927,0,0,1,0,10.377,10.381,10.381,0,0,1,10.361,0H10.4A10.367,10.367,0,0,1,20.722,10.388V10.5c-.078,4.077-2.529,7.46-4.57,9.58a24.9,24.9,0,0,1-1.839,1.731.909.909,0,0,1-1.18-1.382,23.364,23.364,0,0,0,1.707-1.608c1.817-1.886,4-4.867,4.062-8.354a8.566,8.566,0,0,0-8.508-8.651h-.034a8.545,8.545,0,0,0-8.541,8.5,11.116,11.116,0,0,0,2.267,6.37,27.277,27.277,0,0,0,6.484,6.026.909.909,0,0,1-.994,1.523ZM6.415,10.5a.91.91,0,0,1,1.82,0,2.123,2.123,0,1,0,2.123-2.122.908.908,0,1,1,0-1.816A3.937,3.937,0,1,1,6.415,10.5Z" fill="#fff"/>
  </g>
</svg>
