<svg id="man-boy-avatar-male-person" xmlns="http://www.w3.org/2000/svg" width="55.199" height="68.998" viewBox="0 0 55.199 68.998">
  <path id="Path_27" data-name="Path 27" d="M29.9,21.45a3.45,3.45,0,1,0-6.9,0h2.3a1.15,1.15,0,1,1,2.3,0Z" transform="translate(-5.75 0.4)" fill="#20bcba"/>
  <path id="Path_28" data-name="Path 28" d="M38.45,20.3a1.15,1.15,0,0,1,1.15,1.15h2.3a3.45,3.45,0,1,0-6.9,0h2.3A1.15,1.15,0,0,1,38.45,20.3Z" transform="translate(-3.951 0.4)" fill="#20bcba"/>
  <path id="Path_29" data-name="Path 29" d="M55.482,47.378,41.349,43.663V39.949a14.975,14.975,0,0,0,9.016-11.592,5.744,5.744,0,0,0,.184-11.293V16.95H51.7a1.15,1.15,0,0,0,1.15-1.15V6.6a4.6,4.6,0,0,0-4.6-4.6H42.5a3.42,3.42,0,0,0-2.3.9A3.42,3.42,0,0,0,37.9,2H24.1a5.75,5.75,0,0,0-5.75,5.75V15.8a1.15,1.15,0,0,0,1.15,1.15h1.15v.115a5.743,5.743,0,0,0,.184,11.293,14.992,14.992,0,0,0,9.016,11.592v3.714L15.7,47.378A10.384,10.384,0,0,0,8,57.394V69.848A1.15,1.15,0,0,0,9.15,71h52.9a1.15,1.15,0,0,0,1.15-1.15V57.394a10.382,10.382,0,0,0-7.716-10.016ZM20.65,25.942a3.656,3.656,0,0,1-1.288-.793,3.45,3.45,0,0,1,1.288-5.692Zm32.2-3.243a3.475,3.475,0,0,1-1,2.438,3.394,3.394,0,0,1-1.3.793V19.457a3.461,3.461,0,0,1,2.3,3.243ZM41.349,5.45A1.15,1.15,0,0,1,42.5,4.3h5.75a2.307,2.307,0,0,1,2.3,2.3v8.05H44.8a3.46,3.46,0,0,1-3.45-3.45Zm-20.7,9.2V7.75A3.46,3.46,0,0,1,24.1,4.3H37.9a1.15,1.15,0,0,1,1.15,1.15V11.2a3.46,3.46,0,0,1-3.45,3.45Zm2.3,11.5v-9.2H35.6a5.743,5.743,0,0,0,4.6-2.334,5.743,5.743,0,0,0,4.6,2.334h3.45v9.2a12.65,12.65,0,0,1-25.3,0Zm17.675,19.7.724.2v6.7l-4.071-2.714ZM35.6,48.459l-3.45-4.312V40.685a14.582,14.582,0,0,0,6.9,0v3.461Zm-5.75-2.415.724-.2,3.346,4.186-4.071,2.714ZM60.9,68.7H54V61.8H51.7v6.9H19.5V61.8H17.2v6.9H10.3v-11.3a8.072,8.072,0,0,1,5.991-7.785l11.258-2.967V54.9a1.132,1.132,0,0,0,.609,1.012,1.107,1.107,0,0,0,1.173-.057L35.6,51.679l6.267,4.174a1.15,1.15,0,0,0,1.782-.954V46.642L54.9,49.609a8.069,8.069,0,0,1,6,7.785Z" transform="translate(-8 -2)" fill="#20bcba"/>
  <path id="Path_30" data-name="Path 30" d="M37,52h6.9v2.3H37Z" transform="translate(-3.651 5.499)" fill="#20bcba"/>
  <path id="Path_31" data-name="Path 31" d="M38.5,28H36.2c0,.286-1.224,1.15-3.45,1.15S29.3,28.286,29.3,28H27c0,1.966,2.471,3.45,5.75,3.45S38.5,29.966,38.5,28Z" transform="translate(-5.151 1.899)" fill="#20bcba"/>
</svg>
