<svg xmlns="http://www.w3.org/2000/svg" width="137.905" height="117.503" viewBox="0 0 137.905 117.503">
  <g id="performance" transform="translate(0 -37.896)">
    <g id="Group_65" data-name="Group 65" transform="translate(0 37.896)">
      <g id="Group_64" data-name="Group 64" transform="translate(0 0)">
        <g id="Group_63" data-name="Group 63">
          <path id="Path_218" data-name="Path 218" d="M102.451,202.72a4.74,4.74,0,0,0-5.189-4.228l-10.052,1.024a2.016,2.016,0,1,0,.409,4.012L97.672,202.5a.7.7,0,0,1,.768.626l2.532,24.776a4.047,4.047,0,0,1-3.59,4.43l-.023,0a4.042,4.042,0,0,1-4.432-3.611l-1.455-14.24a3.218,3.218,0,0,0-3.524-2.871l-14.24,1.455a4.043,4.043,0,1,1-.821-8.043l5.47-.557a2.016,2.016,0,0,0-.409-4.012l-5.47.557a8.075,8.075,0,1,0,1.639,16.067l2.09-.213L54.89,243.929l-5.383-4.163L35.77,229.144a8.076,8.076,0,0,0-11.336,1.393l-22.69,29.05a8.219,8.219,0,0,0,1.076,11.266A8.008,8.008,0,0,0,8,272.75a8.265,8.265,0,0,0,.861-.045,8.009,8.009,0,0,0,5.523-3.061L32.266,246.75,38.09,251.3a2.017,2.017,0,0,0,2.481-3.179l-6.739-5.259a2.875,2.875,0,0,0-4.029.5l-18.6,23.809a4.044,4.044,0,0,1-5.791.6,4.153,4.153,0,0,1-.492-5.7l22.692-29.05a4.044,4.044,0,0,1,5.677-.7l13.751,10.634,6.3,4.868a2.879,2.879,0,0,0,4.011-.5L81.79,216.3l5.753-.588.57,5.583-3.242,4.068c-9.313,11.687-24.9,31.246-25.636,32.178a3.823,3.823,0,0,1-5.548.808l-5.625-4.389a2.017,2.017,0,0,0-2.481,3.179l5.625,4.389a7.842,7.842,0,0,0,11.2-1.489c.729-.925,16.313-20.48,25.624-32.163l.674-.846.215,2.108a8.086,8.086,0,0,0,8.027,7.254c.264,0,.531-.013.8-.039l.031,0a8.084,8.084,0,0,0,7.212-8.854Z" transform="translate(0 -155.247)" fill="#20bcba"/>
          <path id="Path_219" data-name="Path 219" d="M275.876,60.718a.985.985,0,0,1,.283.871l-1.063,6.2a5.018,5.018,0,0,0,7.28,5.289l5.564-2.925a.985.985,0,0,1,.917,0l5.564,2.925a5.017,5.017,0,0,0,7.28-5.289l-1.062-6.2a.985.985,0,0,1,.283-.872l4.5-4.388a5.017,5.017,0,0,0-2.781-8.558l-6.221-.9a.985.985,0,0,1-.741-.539L292.9,40.693a5.017,5.017,0,0,0-9,0l-2.782,5.637a.985.985,0,0,1-.741.539l-6.221.9a5.017,5.017,0,0,0-2.781,8.558Zm-1.936-8.285a.959.959,0,0,1,.795-.67l6.221-.9a5.017,5.017,0,0,0,3.778-2.744l2.782-5.637a.985.985,0,0,1,1.766,0l2.782,5.637a5.016,5.016,0,0,0,3.778,2.744l6.221.9a.985.985,0,0,1,.546,1.68l-4.5,4.388a5.017,5.017,0,0,0-1.443,4.441l1.062,6.2A.985.985,0,0,1,296.3,69.5l-5.564-2.925a5.017,5.017,0,0,0-4.669,0L280.5,69.5a.985.985,0,0,1-1.429-1.038l1.062-6.2a5.016,5.016,0,0,0-1.443-4.441l-4.5-4.388a.96.96,0,0,1-.249-1.009Z" transform="translate(-197.219 -37.896)" fill="#20bcba"/>
          <path id="Path_220" data-name="Path 220" d="M423.479,165.706a4.575,4.575,0,0,0-2.536-7.8l-5.3-.771a.543.543,0,0,1-.409-.3l-2.372-4.806a4.575,4.575,0,0,0-8.205,0l-2.372,4.807a.541.541,0,0,1-.408.3l-5.3.771a4.575,4.575,0,0,0-2.535,7.8l3.838,3.741a.542.542,0,0,1,.156.48l-.906,5.283a4.575,4.575,0,0,0,6.638,4.823l4.744-2.494a.543.543,0,0,1,.505,0l4.744,2.494a4.575,4.575,0,0,0,6.638-4.823l-.906-5.283a.541.541,0,0,1,.156-.48Zm-6.653.853a4.575,4.575,0,0,0-1.316,4.05l.906,5.283a.542.542,0,0,1-.787.571l-4.744-2.494a4.576,4.576,0,0,0-4.258,0l-4.744,2.494a.543.543,0,0,1-.787-.572l.906-5.282a4.575,4.575,0,0,0-1.316-4.05l-3.838-3.741a.543.543,0,0,1,.3-.925l5.3-.771a4.574,4.574,0,0,0,3.444-2.5l2.372-4.806a.542.542,0,0,1,.973,0l2.372,4.806a4.575,4.575,0,0,0,3.445,2.5l5.3.771a.542.542,0,0,1,.3.925Z" transform="translate(-286.959 -119.444)" fill="#20bcba"/>
        </g>
      </g>
    </g>
  </g>
</svg>
