<svg xmlns="http://www.w3.org/2000/svg" width="90.996" height="81.763" viewBox="0 0 90.996 81.763">
  <g id="relation" transform="translate(0 -25.973)">
    <path id="Path_221" data-name="Path 221" d="M34.346,108.272H31.04v-1.211a5.744,5.744,0,0,0-5.345-5.723c.46-1.446.821-2.981,2.648-3.058A10.862,10.862,0,0,0,38.7,87.83l.719-19.516a10.191,10.191,0,0,0,5.059-17.205c-2.195-2.174-5.689-3.54-8.77-2.752a28.952,28.952,0,0,0-4.389,1.851c-.349.155-.7.305-1.052.447a1.333,1.333,0,0,0,1,2.469c.375-.152.754-.314,1.129-.48,1.1-.488,2.19-1.062,3.318-1.475A6.788,6.788,0,0,1,42.6,53a7.525,7.525,0,0,1-5.03,12.863l-25.374.8A1.333,1.333,0,0,0,10.9,68v5.535H8.594A3.373,3.373,0,0,0,5.224,76.9v4.115a3.373,3.373,0,0,0,3.371,3.368H10.9V87.16a3.064,3.064,0,0,1-3.06,3.06A3.1,3.1,0,0,1,4.8,87.462L2.71,66.286A8.758,8.758,0,0,1,4.721,59.76c3.4-4.066,9.917-3.445,14.729-3.829a39.733,39.733,0,0,0,5.572-.845,1.333,1.333,0,1,0-.586-2.6,37.063,37.063,0,0,1-5.2.788c-5.722.457-12.514-.065-16.562,4.777a11.4,11.4,0,0,0-2.619,8.5L2.146,87.723A5.776,5.776,0,0,0,5.319,92.3l-2.743,10a1.35,1.35,0,0,0-.047.352v21.967a1.333,1.333,0,0,0,1.333,1.333h9.113a1.333,1.333,0,1,0,0-2.666H5.194V110.938H34.346a11.681,11.681,0,0,1,11.668,11.668v.684H19.254a1.333,1.333,0,0,0,0,2.666H47.347a1.333,1.333,0,0,0,1.333-1.333v-2.017a14.35,14.35,0,0,0-14.333-14.334ZM13.57,87.16V83.054a1.333,1.333,0,0,0-1.333-1.333H8.594a.707.707,0,0,1-.7-.7V76.905a.7.7,0,0,1,.7-.7h3.642a1.333,1.333,0,0,0,1.333-1.333V69.291l23.17-.733-.706,19.173a8.245,8.245,0,0,1-7.786,7.885h0c-4.689.077-7.184-1.376-8.265-2.264A1.332,1.332,0,0,0,18.3,95.418a12.687,12.687,0,0,0,5.817,2.535,15.1,15.1,0,0,0-1.213,3.371H5.609l2.314-8.439A5.732,5.732,0,0,0,13.57,87.16ZM5.194,108.272V103.99H25.3a3.076,3.076,0,0,1,3.072,3.072v1.211H5.194Z" transform="translate(0 -18.22)" fill="#20bcba"/>
    <path id="Path_222" data-name="Path 222" d="M163.882,222.563a1.333,1.333,0,1,0,2.568-.717l-1.1-3.923a1.333,1.333,0,1,0-2.568.717Z" transform="translate(-133.815 -157.035)" fill="#20bcba"/>
    <path id="Path_223" data-name="Path 223" d="M129.182,275.519q.2,0,.4-.014a5.805,5.805,0,0,0,1.837-.436,1.333,1.333,0,1,0-1.029-2.459,3.156,3.156,0,0,1-3.631-.883,1.333,1.333,0,1,0-2.041,1.715A5.841,5.841,0,0,0,129.182,275.519Z" transform="translate(-102.3 -201.687)" fill="#20bcba"/>
    <path id="Path_224" data-name="Path 224" d="M302.556,37.441a1.333,1.333,0,0,0,1.333-1.333V31.433a5.466,5.466,0,0,0-5.46-5.46H275.936a5.466,5.466,0,0,0-5.46,5.46V53.926c0,.016,0,.032,0,.048l-11.105,9.543a1.333,1.333,0,1,0,1.737,2.022L271.29,56.79a5.461,5.461,0,0,0,4.646,2.6h22.493a5.466,5.466,0,0,0,5.46-5.46v-11.6a1.333,1.333,0,1,0-2.666,0v11.6a2.8,2.8,0,0,1-2.794,2.794h-3.988V49.857a7.257,7.257,0,0,0-3.3-6.079,6.04,6.04,0,1,0-7.921,0,7.257,7.257,0,0,0-3.3,6.079V56.72h-3.987a2.8,2.8,0,0,1-2.794-2.794V31.433a2.8,2.8,0,0,1,2.794-2.794h22.493a2.8,2.8,0,0,1,2.794,2.794v4.675a1.333,1.333,0,0,0,1.333,1.333Zm-18.748,1.783a3.374,3.374,0,1,1,3.374,3.374,3.378,3.378,0,0,1-3.374-3.374Zm-1.219,10.633a4.593,4.593,0,0,1,9.186,0V56.72h-9.186V49.858Z" transform="translate(-212.894)" fill="#20bcba"/>
    <path id="Path_225" data-name="Path 225" d="M293.754,324.651H275.21a4.741,4.741,0,0,0-4.735,4.735v5.671l-9.224-10.752a1.333,1.333,0,0,0-2.023,1.736l11.247,13.111v8.778a4.741,4.741,0,0,0,4.735,4.735h18.544a4.741,4.741,0,0,0,4.735-4.735V329.386A4.741,4.741,0,0,0,293.754,324.651ZM280.929,350v-5.424a3.553,3.553,0,0,1,7.105,0V350Zm1-14.19a2.548,2.548,0,1,1,2.548,2.548A2.551,2.551,0,0,1,281.934,335.809Zm13.889,12.12a2.072,2.072,0,0,1-2.07,2.07H290.7v-5.424a6.213,6.213,0,0,0-2.579-5.038,5.214,5.214,0,1,0-7.278,0,6.213,6.213,0,0,0-2.579,5.038V350H275.21a2.072,2.072,0,0,1-2.07-2.07V329.386a2.072,2.072,0,0,1,2.07-2.07h18.544a2.072,2.072,0,0,1,2.07,2.07Z" transform="translate(-212.892 -244.929)" fill="#20bcba"/>
    <path id="Path_226" data-name="Path 226" d="M382.276,232.539h-5.628a3.856,3.856,0,0,0-3.852,3.852v1.481H360.334a1.333,1.333,0,0,0,0,2.666H372.8v1.481a3.856,3.856,0,0,0,3.852,3.852h5.628a3.856,3.856,0,0,0,3.852-3.852v-5.628a3.856,3.856,0,0,0-3.852-3.852Zm1.186,9.48a1.187,1.187,0,0,1-1.186,1.186h-5.628a1.187,1.187,0,0,1-1.186-1.186v-5.628a1.187,1.187,0,0,1,1.186-1.186h5.628a1.187,1.187,0,0,1,1.186,1.186Z" transform="translate(-295.198 -169.854)" fill="#20bcba"/>
  </g>
</svg>
