<svg id="right" xmlns="http://www.w3.org/2000/svg" width="739.901" height="645.905" viewBox="0 0 739.901 645.905">
  <g id="line_shape" data-name="line shape" transform="translate(222.629)">
    <path id="Path_32" data-name="Path 32" d="M535.531,48.24c-1.088-.747-2.18-1.494-3.285-2.221l-195.5,154.348q.071,2.357.118,4.718Z" transform="translate(-278.82 -23.097)" fill="#20bcba"/>
    <path id="Path_33" data-name="Path 33" d="M499.309,41.917q-2.2-.7-4.418-1.328L336.034,166.009c.085,1.545.142,3.089.227,4.634Z" transform="translate(-280.509 -36.019)" fill="#20bcba"/>
    <path id="Path_34" data-name="Path 34" d="M518.7,44.829q-1.85-.963-3.721-1.872L336.422,183.924c.088,1.534.183,3.069.267,4.6Z" transform="translate(-279.586 -30.384)" fill="#20bcba"/>
    <path id="Path_35" data-name="Path 35" d="M567.438,56.186q-1.3-1.389-2.62-2.748L336.678,233.554q-.365,2.728-.794,5.438Z" transform="translate(-280.866 -5.441)" fill="#20bcba"/>
    <path id="Path_36" data-name="Path 36" d="M551.478,52.03c-.973-.838-1.93-1.69-2.923-2.508L336.924,216.606c-.057,1.67-.162,3.339-.25,5.012Z" transform="translate(-278.986 -14.76)" fill="#20bcba"/>
    <path id="Path_37" data-name="Path 37" d="M475.34,39.837c-1.791-.223-3.586-.406-5.384-.564L335.833,145.164q-.056,2.413-.034,4.84Z" transform="translate(-281.086 -39.151)" fill="#20bcba"/>
    <path id="Path_38" data-name="Path 38" d="M581.38,133.961l-161.75,127.7c1.075-.568,2.119-1.183,3.207-1.727q6.92-3.483,13.851-6.929L576.743,142.434Q579.171,138.247,581.38,133.961Z" transform="translate(-81.562 186.193)" fill="#20bcba"/>
    <path id="Path_39" data-name="Path 39" d="M660.621,76.362,320.364,344.994c-.044.426-.108.855-.145,1.278-.149,1.379-.274,2.67-.4,3.961L663.15,79.177C662.3,78.245,661.443,77.329,660.621,76.362Z" transform="translate(-319.089 49.115)" fill="#20bcba"/>
    <path id="Path_40" data-name="Path 40" d="M628.62,70.2q-.963-1.384-1.923-2.771c-.078-.115-.155-.226-.233-.338L327.633,303.015c-.994,2.376-1.994,4.749-2.951,7.142Z" transform="translate(-307.526 27.049)" fill="#20bcba"/>
    <path id="Path_41" data-name="Path 41" d="M606.247,65.48c-.713-1.041-1.453-2.062-2.17-3.1L332.671,276.654c-1.041,2.42-2.082,4.84-3.154,7.25l-.037.081Z" transform="translate(-296.107 15.833)" fill="#20bcba"/>
    <path id="Path_42" data-name="Path 42" d="M585.091,60.73c-.757-1.014-1.545-1.991-2.319-2.984L335.748,252.774c-.27.909-.524,1.818-.811,2.728-.4,1.247-.848,2.477-1.261,3.718Z" transform="translate(-286.121 4.812)" fill="#20bcba"/>
    <path id="Path_43" data-name="Path 43" d="M386.384,42.476a110.786,110.786,0,0,0-18.738,10.363A108.243,108.243,0,0,0,341.537,77.88Z" transform="translate(-267.413 -31.529)" fill="#20bcba"/>
    <path id="Path_44" data-name="Path 44" d="M443.324,39.237q-3.523.284-7.047.75l-98.3,77.612q-.816,2.966-1.45,5.959Z" transform="translate(-279.343 -39.237)" fill="#20bcba"/>
    <path id="Path_45" data-name="Path 45" d="M693.085,85.77c-1.217-.632-2.4-1.308-3.589-1.977l-369,291.324c.308,1.352.679,2.67,1.028,4Z" transform="translate(-317.488 66.8)" fill="#20bcba"/>
    <path id="Path_46" data-name="Path 46" d="M763.585,96.71c-1.075-.76-2.143-1.545-3.251-2.244L336.962,428.718c1.075.76,2.156,1.514,3.248,2.248Z" transform="translate(-278.301 92.201)" fill="#20bcba"/>
    <path id="Path_47" data-name="Path 47" d="M762.353,106.369c-.524-1.186-1.1-2.339-1.683-3.485L347.85,428.8c1.345.558,2.69,1.105,4.042,1.626Z" transform="translate(-252.389 112.234)" fill="#20bcba"/>
    <path id="Path_48" data-name="Path 48" d="M765.748,101.025c-.8-.963-1.656-1.9-2.518-2.826L342.116,430.669c1.2.659,2.413,1.311,3.633,1.947Z" transform="translate(-266.035 101.085)" fill="#20bcba"/>
    <path id="Path_49" data-name="Path 49" d="M752.738,112.779c-.243-1.4-.487-2.8-.787-4.191L354.34,422.5c1.561.385,3.123.771,4.695,1.105Z" transform="translate(-236.944 125.809)" fill="#20bcba"/>
    <path id="Path_50" data-name="Path 50" d="M705.921,129.706c.612-2.045,1.2-4.1,1.734-6.182l-335.4,264.8q4.274-.811,8.477-1.883Z" transform="translate(-194.301 161.355)" fill="#20bcba"/>
    <path id="Path_51" data-name="Path 51" d="M735.541,120.3c.1-1.653.169-3.309.189-4.962L362.107,410.308c1.974.091,3.958.118,5.945.118Z" transform="translate(-218.459 141.863)" fill="#20bcba"/>
    <path id="Path_52" data-name="Path 52" d="M647.739,74.864c-.73-1.027-1.467-2.052-2.19-3.082L323.086,326.37q-.938,3.108-1.778,6.212Z" transform="translate(-315.555 38.216)" fill="#20bcba"/>
    <path id="Path_53" data-name="Path 53" d="M678.007,82.8c-1.024-.794-2.075-1.555-3.076-2.386L319.606,360.946q.091,2.317.277,4.593Z" transform="translate(-319.606 58.759)" fill="#20bcba"/>
    <path id="Path_54" data-name="Path 54" d="M709.106,87.915c-.75-.247-1.511-.466-2.261-.72-.673-.23-1.311-.507-1.977-.744l-382.526,302c.5,1.2,1.061,2.369,1.6,3.552Z" transform="translate(-313.097 73.128)" fill="#20bcba"/>
    <path id="Path_55" data-name="Path 55" d="M725.76,89.592c-1.555-.368-3.106-.744-4.657-1.136L325,401.178c.666,1.068,1.413,2.1,2.112,3.15Z" transform="translate(-306.771 77.898)" fill="#20bcba"/>
    <path id="Path_56" data-name="Path 56" d="M755.773,93.269c-.723-.27-1.426-.575-2.156-.831-.686-.237-1.386-.416-2.072-.642L332.374,422.731c.953.862,1.947,1.67,2.917,2.508Z" transform="translate(-289.22 85.844)" fill="#20bcba"/>
    <path id="Path_57" data-name="Path 57" d="M742.253,91.058c-1.6-.341-3.2-.693-4.806-1.021L328.372,413c.811.953,1.7,1.866,2.545,2.8Z" transform="translate(-298.744 81.66)" fill="#20bcba"/>
  </g>
  <path id="shape" d="M714.39,147.969c25.166-15.116,46.4-25.389,70.7-31.164,40.934-9.856,78.66-6.591,113.708,16.959,92.111,61.9,48.766,185.4,13.138,261.959A366.271,366.271,0,0,1,697.963,587.791c-87.206,29.618-185.715,24.977-274.1-12.923-50-21.44-99.634-56.763-121.181-110.257-17.989-44.656-12.581-98.027,13.62-134.5,28.876-40.188,69.245-40.785,111.1-54.793,44.607-14.927,88.174-32.1,133.507-45.534a408.513,408.513,0,0,0,48.23-17.21,382.148,382.148,0,0,0,41.548-21.827c14.514-8.632,28.386-18.319,42.142-28.122C701.286,156.626,710.074,151.065,714.39,147.969Z" transform="translate(-292.16 38.829)" fill="#20bcba"/>
</svg>
