<svg id="working-time" xmlns="http://www.w3.org/2000/svg" width="139.906" height="120.854" viewBox="0 0 139.906 120.854">
  <path id="Path_16" data-name="Path 16" d="M293.849,229.817a29.171,29.171,0,1,0,29.171,29.171A29.2,29.2,0,0,0,293.849,229.817Zm0,54.243a25.072,25.072,0,1,1,25.072-25.072A25.1,25.1,0,0,1,293.849,284.06Z" transform="translate(-192.354 -176.545)" fill="#fff"/>
  <path id="Path_17" data-name="Path 17" d="M365.982,261.965a2.049,2.049,0,0,0,2.049-2.049v-.939a2.049,2.049,0,1,0-4.1,0v.939A2.049,2.049,0,0,0,365.982,261.965Z" transform="translate(-264.488 -196.248)" fill="#fff"/>
  <path id="Path_18" data-name="Path 18" d="M413.781,278.659l-.664.664a2.05,2.05,0,0,0,2.9,2.9l.664-.664a2.05,2.05,0,1,0-2.9-2.9Z" transform="translate(-299.795 -211.604)" fill="#fff"/>
  <path id="Path_19" data-name="Path 19" d="M432.641,331.121a2.049,2.049,0,0,0,2.049,2.049h.939a2.049,2.049,0,0,0,0-4.1h-.939A2.049,2.049,0,0,0,432.641,331.121Z" transform="translate(-314.421 -248.678)" fill="#fff"/>
  <path id="Path_20" data-name="Path 20" d="M294.776,329.072h-.939a2.049,2.049,0,1,0,0,4.1h.939a2.049,2.049,0,1,0,0-4.1Z" transform="translate(-212.056 -248.678)" fill="#fff"/>
  <path id="Path_21" data-name="Path 21" d="M416.016,378.256a2.049,2.049,0,0,0-2.9,2.9l.664.664a2.049,2.049,0,1,0,2.9-2.9Z" transform="translate(-299.796 -283.986)" fill="#fff"/>
  <path id="Path_22" data-name="Path 22" d="M365.982,397.781a2.049,2.049,0,0,0-2.049,2.049v.939a2.049,2.049,0,0,0,4.1,0v-.939A2.049,2.049,0,0,0,365.982,397.781Z" transform="translate(-264.488 -298.612)" fill="#fff"/>
  <path id="Path_23" data-name="Path 23" d="M314.182,378.258l-.664.664a2.05,2.05,0,0,0,2.9,2.9l.664-.664a2.05,2.05,0,1,0-2.9-2.9Z" transform="translate(-227.413 -283.988)" fill="#fff"/>
  <path id="Path_24" data-name="Path 24" d="M314.184,282.221a2.049,2.049,0,0,0,2.9-2.9l-.664-.664a2.049,2.049,0,0,0-2.9,2.9Z" transform="translate(-227.415 -211.604)" fill="#fff"/>
  <path id="Path_25" data-name="Path 25" d="M371.569,300.3h-3.536v-8.767a2.049,2.049,0,1,0-4.1,0v10.816a2.049,2.049,0,0,0,2.049,2.049h5.586a2.049,2.049,0,0,0,0-4.1Z" transform="translate(-264.488 -219.91)" fill="#fff"/>
  <path id="Path_26" data-name="Path 26" d="M132.67,94.864a2.05,2.05,0,0,0-3.325,2.4,34.337,34.337,0,1,1-5.205-5.733,2.049,2.049,0,1,0,2.706-3.078,38.357,38.357,0,0,0-16.97-8.631l4.89-21A8.593,8.593,0,0,0,106.4,48.274H79.372v-5.45a7.973,7.973,0,0,0-7.964-7.964H43.584a7.973,7.973,0,0,0-7.964,7.964v5.449H23.245a2.049,2.049,0,0,0,0,4.1H106.4a4.494,4.494,0,0,1,4.377,5.514l-4.947,21.251a38.358,38.358,0,0,0-23.851,5.1H68.254V81.858a5.094,5.094,0,0,0-5.089-5.089H51.828a5.094,5.094,0,0,0-5.089,5.089v2.377H14.245A4.889,4.889,0,0,1,9.47,80.444L4.219,57.886A4.494,4.494,0,0,1,8.6,52.372h6.454a2.049,2.049,0,1,0,0-4.1H8.6A8.593,8.593,0,0,0,.227,58.815L5.478,81.373a9.021,9.021,0,0,0,1.742,3.6v26.807a9.856,9.856,0,0,0,9.845,9.845H29.816a2.049,2.049,0,0,0,0-4.1H17.065a5.753,5.753,0,0,1-5.746-5.746V87.85a9.061,9.061,0,0,0,2.927.484H46.739v2.353a5.1,5.1,0,0,0,5.089,5.089H63.165a5.094,5.094,0,0,0,5.089-5.089V88.334H76.3a38.317,38.317,0,0,0-13.214,29.191H38.01a2.049,2.049,0,1,0,0,4.1H63.328A38.41,38.41,0,1,0,132.67,94.864ZM39.719,42.824a3.87,3.87,0,0,1,3.865-3.865H71.408a3.87,3.87,0,0,1,3.865,3.865v5.449H39.719ZM64.155,90.686a.991.991,0,0,1-.99.99H51.828a.991.991,0,0,1-.99-.99V81.858a.991.991,0,0,1,.99-.99H63.165a.991.991,0,0,1,.99.99Z" transform="translate(0 -34.86)" fill="#fff"/>
</svg>
